<svg width="106" height="82" viewBox="0 0 106 82" fill="none" xmlns="http://www.w3.org/2000/svg">
<g clip-path="url(#clip0_42_3464)">
<path fill-rule="evenodd" clip-rule="evenodd" d="M13.5168 0C6.33441 0 0.518677 5.78625 0.518677 12.9322V38.6478C0.518677 45.7838 6.33441 51.58 13.5168 51.58H39.3634C40.1315 51.58 40.8797 51.5105 41.6079 51.3914V38.8165C41.6079 32.4348 46.2465 27.1348 52.3515 26.0828V12.9322C52.3515 5.79618 46.5358 0 39.3534 0H13.5168Z" fill="#EC8034"/>
<path d="M17.916 32.931C17.916 32.931 21.1381 34.9061 26.495 34.9061C31.8518 34.9061 35.0739 32.931 35.0739 32.931" stroke="white" stroke-width="3.59" stroke-linecap="round" stroke-linejoin="round"/>
<path d="M19.971 20.8226C19.971 23.1351 18.0458 25.0109 15.6616 25.0109C13.2774 25.0109 11.3522 23.1351 11.3522 20.8226C11.3522 18.5101 13.2774 16.6343 15.6616 16.6343C18.0458 16.6343 19.971 18.5101 19.971 20.8226ZM41.4483 20.8226C41.4483 23.1351 39.5231 25.0109 37.1389 25.0109C34.7548 25.0109 32.8295 23.1351 32.8295 20.8226C32.8295 18.5101 34.7548 16.6343 37.1389 16.6343C39.5231 16.6343 41.4483 18.5101 41.4483 20.8226Z" fill="white" stroke="white" stroke-width="0.16"/>
<path d="M82.5176 27.9387H56.681C49.5023 27.9387 43.6829 33.7287 43.6829 40.8709V66.5766C43.6829 73.7188 49.5023 79.5088 56.681 79.5088H82.5176C89.6963 79.5088 95.5157 73.7188 95.5157 66.5766V40.8709C95.5157 33.7287 89.6963 27.9387 82.5176 27.9387Z" fill="#EC8034"/>
<path d="M61.0802 60.8698C61.0802 60.8698 64.3023 62.8448 69.6592 62.8448C75.016 62.8448 78.2381 60.8698 78.2381 60.8698" stroke="white" stroke-width="3.59" stroke-linecap="round" stroke-linejoin="round"/>
<path d="M63.1351 48.7712C63.1351 51.0837 61.2098 52.9596 58.8257 52.9596C56.4415 52.9596 54.5162 51.0837 54.5162 48.7712C54.5162 46.4587 56.4415 44.5829 58.8257 44.5829C61.2098 44.5829 63.1351 46.4587 63.1351 48.7712ZM84.6124 48.7712C84.6124 51.0837 82.6871 52.9596 80.303 52.9596C77.9188 52.9596 75.9936 51.0837 75.9936 48.7712C75.9936 46.4587 77.9188 44.5829 80.303 44.5829C82.6871 44.5829 84.6124 46.4587 84.6124 48.7712Z" fill="white" stroke="white" stroke-width="0.16"/>
<path d="M59.6836 7.77118C62.2573 9.04158 65.669 7.40396 65.669 7.40396C65.669 7.40396 64.9108 3.71188 62.3371 2.45141C59.7634 1.18101 56.3518 2.8087 56.3518 2.8087C56.3518 2.8087 57.1099 6.50079 59.6836 7.77118Z" fill="url(#paint0_linear_42_3464)"/>
<path d="M20.1206 70.5665C21.0847 70.5665 21.8663 69.7889 21.8663 68.8296C21.8663 67.8704 21.0847 67.0928 20.1206 67.0928C19.1565 67.0928 18.3749 67.8704 18.3749 68.8296C18.3749 69.7889 19.1565 70.5665 20.1206 70.5665Z" fill="#EC8034"/>
<path d="M63.2649 21.7158C65.0774 21.7158 66.5468 20.2539 66.5468 18.4505C66.5468 16.6471 65.0774 15.1852 63.2649 15.1852C61.4523 15.1852 59.9829 16.6471 59.9829 18.4505C59.9829 20.2539 61.4523 21.7158 63.2649 21.7158Z" fill="#EC8034"/>
<path d="M86.5178 25.2093C87.4819 25.2093 88.2635 24.4317 88.2635 23.4725C88.2635 22.5132 87.4819 21.7356 86.5178 21.7356C85.5537 21.7356 84.7721 22.5132 84.7721 23.4725C84.7721 24.4317 85.5537 25.2093 86.5178 25.2093Z" fill="#EC8034"/>
<path d="M103.536 73.0378C104.897 73.0378 106 71.9403 106 70.5864C106 69.2324 104.897 68.1349 103.536 68.1349C102.175 68.1349 101.072 69.2324 101.072 70.5864C101.072 71.9403 102.175 73.0378 103.536 73.0378Z" fill="#E1E4E5"/>
<path d="M23.2131 61.8821C24.9265 61.8821 26.3155 60.5001 26.3155 58.7954C26.3155 57.0907 24.9265 55.7087 23.2131 55.7087C21.4997 55.7087 20.1107 57.0907 20.1107 58.7954C20.1107 60.5001 21.4997 61.8821 23.2131 61.8821Z" fill="#E1E4E5"/>
<path d="M80.333 15.9692C81.6938 15.9692 82.7969 14.8717 82.7969 13.5177C82.7969 12.1638 81.6938 11.0663 80.333 11.0663C78.9722 11.0663 77.869 12.1638 77.869 13.5177C77.869 14.8717 78.9722 15.9692 80.333 15.9692Z" fill="#E1E4E5"/>
<path d="M2.52381 55.7585C3.91767 55.7585 5.04762 54.8609 5.04762 53.7536C5.04762 52.6464 3.91767 51.7488 2.52381 51.7488C1.12995 51.7488 0 52.6464 0 53.7536C0 54.8609 1.12995 55.7585 2.52381 55.7585Z" fill="#E1E4E5"/>
<path d="M35.0541 82C37.2743 82 39.0742 80.2092 39.0742 78.0002C39.0742 75.7912 37.2743 74.0005 35.0541 74.0005C32.8338 74.0005 31.0339 75.7912 31.0339 78.0002C31.0339 80.2092 32.8338 82 35.0541 82Z" fill="#E1E4E5"/>
</g>
<defs>
<linearGradient id="paint0_linear_42_3464" x1="69.5095" y1="11.8007" x2="48.3846" y2="-4.99756" gradientUnits="userSpaceOnUse">
<stop stop-color="white"/>
<stop offset="1" stop-color="#EEEEEE"/>
</linearGradient>
<clipPath id="clip0_42_3464">
<rect width="106" height="82" fill="white"/>
</clipPath>
</defs>
</svg>
