<svg width="107" height="82" viewBox="0 0 107 82" fill="none" xmlns="http://www.w3.org/2000/svg">
<g clip-path="url(#clip0_42_3480)">
<path d="M71.5021 43.3049H22.891C21.1038 43.3049 19.6549 44.7613 19.6549 46.5578V47.6554C19.6549 49.4519 21.1038 50.9082 22.891 50.9082H71.5021C73.2894 50.9082 74.7382 49.4519 74.7382 47.6554V46.5578C74.7382 44.7613 73.2894 43.3049 71.5021 43.3049Z" fill="white" stroke="#E1E4E5" stroke-width="1.79"/>
<path d="M71.5021 54.7498H22.891C21.1038 54.7498 19.6549 56.2061 19.6549 58.0026V59.1002C19.6549 60.8967 21.1038 62.3531 22.891 62.3531H71.5021C73.2894 62.3531 74.7382 60.8967 74.7382 59.1002V58.0026C74.7382 56.2061 73.2894 54.7498 71.5021 54.7498Z" fill="white" stroke="#E1E4E5" stroke-width="1.79"/>
<path d="M71.5021 66.1947H22.891C21.1038 66.1947 19.6549 67.6511 19.6549 69.4476V70.5452C19.6549 72.3417 21.1038 73.798 22.891 73.798H71.5021C73.2894 73.798 74.7382 72.3417 74.7382 70.5452V69.4476C74.7382 67.6511 73.2894 66.1947 71.5021 66.1947Z" fill="white" stroke="#E1E4E5" stroke-width="1.79"/>
<path d="M80.0688 12.9216H14.4334C13.0025 12.9216 11.8425 14.0876 11.8425 15.5259V78.5077C11.8425 79.946 13.0025 81.1119 14.4334 81.1119H80.0688C81.4997 81.1119 82.6597 79.946 82.6597 78.5077V15.5259C82.6597 14.0876 81.4997 12.9216 80.0688 12.9216Z" stroke="#E1E4E5" stroke-width="1.79"/>
<path d="M71.512 31.89H60.7415C58.9542 31.89 57.5054 33.3464 57.5054 35.1429V36.2405C57.5054 38.037 58.9542 39.4933 60.7415 39.4933H71.512C73.2992 39.4933 74.7481 38.037 74.7481 36.2405V35.1429C74.7481 33.3464 73.2992 31.89 71.512 31.89Z" fill="white" stroke="#E1E4E5" stroke-width="1.79"/>
<path d="M50.4773 31.89H22.891C21.1038 31.89 19.6549 33.3464 19.6549 35.1429V36.2405C19.6549 38.037 21.1038 39.4933 22.891 39.4933H50.4773C52.2646 39.4933 53.7134 38.037 53.7134 36.2405V35.1429C53.7134 33.3464 52.2646 31.89 50.4773 31.89Z" fill="white" stroke="#E1E4E5" stroke-width="1.79"/>
<path d="M23.5164 28.0784C21.4417 28.0784 19.7542 26.3921 19.7542 24.2967C19.7542 22.2113 21.4318 20.515 23.5164 20.515C25.5911 20.515 27.2786 22.2013 27.2786 24.2967C27.2786 26.3821 25.601 28.0784 23.5164 28.0784Z" fill="white" stroke="#E1E4E5" stroke-width="1.79"/>
<path d="M79.7908 0H58.9447C48.5217 0 43.3102 5.2385 43.3102 15.7155V49.7608C43.3102 51.1976 44.4815 52.375 45.911 52.375H79.7809C90.204 52.375 95.4155 47.1365 95.4155 36.6595V15.7155C95.4254 5.2385 90.2139 0 79.7908 0Z" fill="#EC8034"/>
<path d="M71.7404 15.2965L58.2202 28.8866C57.704 29.4155 57.2077 30.4332 57.0985 31.1616L56.3738 36.3503C56.1157 38.2361 57.4161 39.5432 59.2923 39.2838L64.4542 38.5554C65.1887 38.4457 66.2013 37.9567 66.7175 37.4279L80.2376 23.8377C82.5605 21.5028 83.6723 18.7788 80.2376 15.3264C76.803 11.8441 74.093 12.9416 71.7404 15.2965V15.2965Z" stroke="white" stroke-width="3.91" stroke-linecap="round" stroke-linejoin="round"/>
<path d="M69.8046 17.2322C70.9461 21.3432 74.1525 24.596 78.272 25.7435" stroke="white" stroke-width="3.91" stroke-linecap="round" stroke-linejoin="round"/>
<path d="M101.352 50.3695C98.5623 51.7564 94.8596 49.9703 94.8596 49.9703C94.8596 49.9703 95.6835 45.9292 98.4729 44.5423C101.262 43.1553 104.965 44.9414 104.965 44.9414C104.965 44.9414 104.141 48.9825 101.352 50.3794V50.3695Z" fill="url(#paint0_linear_42_3480)"/>
<path d="M4.28836 11.4947C6.98842 13.1211 10.8598 11.6145 10.8598 11.6145C10.8598 11.6145 10.3536 7.47354 7.65351 5.85709C4.95345 4.23066 1.08203 5.72737 1.08203 5.72737C1.08203 5.72737 1.58829 9.86829 4.28836 11.4947Z" fill="url(#paint1_linear_42_3480)"/>
<path d="M102.275 25.6238C103.859 25.6238 105.144 24.3327 105.144 22.7401C105.144 21.1475 103.859 19.8564 102.275 19.8564C100.69 19.8564 99.406 21.1475 99.406 22.7401C99.406 24.3327 100.69 25.6238 102.275 25.6238Z" fill="#EC8034"/>
<path d="M5.11231 27.4199C6.41712 27.4199 7.47487 26.3566 7.47487 25.0451C7.47487 23.7335 6.41712 22.6703 5.11231 22.6703C3.80751 22.6703 2.74976 23.7335 2.74976 25.0451C2.74976 26.3566 3.80751 27.4199 5.11231 27.4199Z" fill="#EC8034"/>
<path d="M24.4991 8.75078C25.9848 8.75078 27.1892 7.54013 27.1892 6.04672C27.1892 4.5533 25.9848 3.34265 24.4991 3.34265C23.0134 3.34265 21.809 4.5533 21.809 6.04672C21.809 7.54013 23.0134 8.75078 24.4991 8.75078Z" fill="#EC8034"/>
<path d="M89.8566 58.5814C90.5474 58.5814 91.1074 58.0185 91.1074 57.3241C91.1074 56.6298 90.5474 56.0669 89.8566 56.0669C89.1658 56.0669 88.6058 56.6298 88.6058 57.3241C88.6058 58.0185 89.1658 58.5814 89.8566 58.5814Z" fill="#0093BA"/>
<path d="M79.5329 74.3668C80.4265 74.3668 81.1509 73.6386 81.1509 72.7403C81.1509 71.8421 80.4265 71.1139 79.5329 71.1139C78.6392 71.1139 77.9148 71.8421 77.9148 72.7403C77.9148 73.6386 78.6392 74.3668 79.5329 74.3668Z" fill="#E1E4E5"/>
<path d="M7.61378 64.3088C8.90214 64.3088 9.94656 63.259 9.94656 61.964C9.94656 60.669 8.90214 59.6191 7.61378 59.6191C6.32543 59.6191 5.28101 60.669 5.28101 61.964C5.28101 63.259 6.32543 64.3088 7.61378 64.3088Z" fill="#E1E4E5"/>
<path d="M91.0775 81.7805C92.0589 81.7805 92.8544 80.9809 92.8544 79.9945C92.8544 79.008 92.0589 78.2084 91.0775 78.2084C90.0962 78.2084 89.3007 79.008 89.3007 79.9945C89.3007 80.9809 90.0962 81.7805 91.0775 81.7805Z" fill="#E1E4E5"/>
<path d="M105.025 10.5669C106.116 10.5669 107 9.67786 107 8.58122C107 7.48458 106.116 6.59558 105.025 6.59558C103.934 6.59558 103.049 7.48458 103.049 8.58122C103.049 9.67786 103.934 10.5669 105.025 10.5669Z" fill="#E1E4E5"/>
<path d="M1.76695 39.5133C2.74282 39.5133 3.53391 38.7181 3.53391 37.7372C3.53391 36.7562 2.74282 35.9611 1.76695 35.9611C0.791092 35.9611 0 36.7562 0 37.7372C0 38.7181 0.791092 39.5133 1.76695 39.5133Z" fill="#E1E4E5"/>
<path d="M35.8255 3.27278C36.2312 3.27278 36.5601 2.9422 36.5601 2.5344C36.5601 2.1266 36.2312 1.79602 35.8255 1.79602C35.4198 1.79602 35.0909 2.1266 35.0909 2.5344C35.0909 2.9422 35.4198 3.27278 35.8255 3.27278Z" fill="#E1E4E5"/>
<path d="M91.1172 69.8766C92.1205 69.8766 92.9338 69.2244 92.9338 68.4198C92.9338 67.6152 92.1205 66.963 91.1172 66.963C90.114 66.963 89.3007 67.6152 89.3007 68.4198C89.3007 69.2244 90.114 69.8766 91.1172 69.8766Z" fill="#E1E4E5"/>
</g>
<defs>
<linearGradient id="paint0_linear_42_3480" x1="90.6904" y1="54.7798" x2="113.792" y2="36.596" gradientUnits="userSpaceOnUse">
<stop stop-color="white"/>
<stop offset="1" stop-color="#EEEEEE"/>
</linearGradient>
<linearGradient id="paint1_linear_42_3480" x1="14.6717" y1="16.8031" x2="-7.15183" y2="-3.37003" gradientUnits="userSpaceOnUse">
<stop stop-color="white"/>
<stop offset="1" stop-color="#EEEEEE"/>
</linearGradient>
<clipPath id="clip0_42_3480">
<rect width="107" height="82" fill="white"/>
</clipPath>
</defs>
</svg>
