<svg width="1440" height="458" viewBox="0 0 1440 458" fill="none" xmlns="http://www.w3.org/2000/svg">
<g opacity="0.3">
<path d="M1369.75 295.987C1373.18 359.381 1249.29 488.291 1096.57 440.573C1025.54 418.374 1031.55 381.544 977.542 333.005C945.346 304.071 899.098 282.189 886.231 240.139C875.112 203.837 881.939 164.813 901.198 139.435C944.525 82.3537 1032.01 43.2712 1118.2 133.204C1204.38 223.137 1360.85 132.489 1369.74 295.987H1369.75Z" fill="url(#paint0_linear_0_1)"/>
<path d="M1320.49 139.552C1308.96 160.143 1283.69 162.971 1243.24 159.052C1212.8 156.107 1185.05 153.819 1154.63 137.229C1133.33 125.613 1116.46 109.914 1104.16 94.6498C1090.82 78.118 1072.21 59.2632 1081.33 40.5256C1093.87 14.7835 1166.39 -6.89898 1236.81 28.558C1314.16 67.5115 1331.78 119.43 1320.5 139.552H1320.49Z" fill="url(#paint1_linear_0_1)"/>
<path d="M1396.88 189.3C1372.69 195.037 1347.11 174.516 1347.11 174.516C1347.11 174.516 1360.76 144.714 1384.95 139C1409.13 133.275 1434.7 153.772 1434.7 153.772C1434.7 153.772 1421.05 183.574 1396.87 189.3H1396.88Z" fill="url(#paint2_linear_0_1)"/>
<path d="M1448.74 368.685C1455.64 363.968 1456.32 352.963 1456.32 352.963C1456.32 352.963 1445.82 349.619 1438.94 354.347C1432.04 359.064 1431.36 370.058 1431.36 370.058C1431.36 370.058 1441.86 373.401 1448.74 368.673V368.685Z" fill="url(#paint3_linear_0_1)"/>
<path d="M826.179 261.27C837.216 272.51 857.859 270.14 857.859 270.14C857.859 270.14 860.592 249.548 849.543 238.32C838.506 227.08 817.875 229.438 817.875 229.438C817.875 229.438 815.142 250.029 826.179 261.27Z" fill="url(#paint4_linear_0_1)"/>
<path d="M1440.2 314.702C1447.65 314.702 1453.69 308.661 1453.69 301.209C1453.69 293.757 1447.65 287.716 1440.2 287.716C1432.75 287.716 1426.72 293.757 1426.72 301.209C1426.72 308.661 1432.75 314.702 1440.2 314.702Z" fill="#E1E4E5"/>
<path d="M987.464 190.332C998.801 190.332 1007.99 181.139 1007.99 169.799C1007.99 158.46 998.801 149.267 987.464 149.267C976.128 149.267 966.939 158.46 966.939 169.799C966.939 181.139 976.128 190.332 987.464 190.332Z" fill="#E1E4E5"/>
<path d="M856.053 157.75C865.627 157.75 873.388 149.986 873.388 140.408C873.388 130.831 865.627 123.067 856.053 123.067C846.479 123.067 838.717 130.831 838.717 140.408C838.717 149.986 846.479 157.75 856.053 157.75Z" fill="#E1E4E5"/>
<path d="M1253.13 97.6417C1262.84 97.6417 1270.72 89.7622 1270.72 80.0423C1270.72 70.3223 1262.84 62.4428 1253.13 62.4428C1243.41 62.4428 1235.53 70.3223 1235.53 80.0423C1235.53 89.7622 1243.41 97.6417 1253.13 97.6417Z" fill="#E1E4E5"/>
<path d="M1405.02 231.397C1409.88 231.397 1413.81 227.458 1413.81 222.598C1413.81 217.738 1409.88 213.798 1405.02 213.798C1400.16 213.798 1396.22 217.738 1396.22 222.598C1396.22 227.458 1400.16 231.397 1405.02 231.397Z" fill="#E1E4E5"/>
<path d="M788.646 403.872C793.822 403.872 798.018 399.675 798.018 394.497C798.018 389.32 793.822 385.123 788.646 385.123C783.47 385.123 779.275 389.32 779.275 394.497C779.275 399.675 783.47 403.872 788.646 403.872Z" fill="white"/>
<path d="M901.737 190.121C905.889 190.121 909.255 186.754 909.255 182.6C909.255 178.446 905.889 175.079 901.737 175.079C897.585 175.079 894.219 178.446 894.219 182.6C894.219 186.754 897.585 190.121 901.737 190.121Z" fill="#E1E4E5"/>
<path d="M1353.33 96.3042C1359.66 96.3042 1364.8 91.1667 1364.8 84.8293C1364.8 78.492 1359.66 73.3545 1353.33 73.3545C1346.99 73.3545 1341.86 78.492 1341.86 84.8293C1341.86 91.1667 1346.99 96.3042 1353.33 96.3042Z" fill="#E1E4E5"/>
<path d="M855.9 281.603C860.046 281.603 863.407 278.241 863.407 274.094C863.407 269.947 860.046 266.585 855.9 266.585C851.754 266.585 848.394 269.947 848.394 274.094C848.394 278.241 851.754 281.603 855.9 281.603Z" fill="white"/>
<path d="M1010.93 103.532C1016.45 103.532 1020.92 99.0613 1020.92 93.5469C1020.92 88.0325 1016.45 83.5621 1010.93 83.5621C1005.42 83.5621 1000.95 88.0325 1000.95 93.5469C1000.95 99.0613 1005.42 103.532 1010.93 103.532Z" fill="#E1E4E5"/>
<path d="M1342.6 299.578C1346.84 299.578 1350.28 296.825 1350.28 293.43C1350.28 290.034 1346.84 287.282 1342.6 287.282C1338.35 287.282 1334.91 290.034 1334.91 293.43C1334.91 296.825 1338.35 299.578 1342.6 299.578Z" fill="white"/>
<path d="M1185.31 29.086C1193.34 29.086 1199.84 22.5775 1199.84 14.5489C1199.84 6.52022 1193.34 0.0117188 1185.31 0.0117188C1177.28 0.0117188 1170.78 6.52022 1170.78 14.5489C1170.78 22.5775 1177.28 29.086 1185.31 29.086Z" fill="#E1E4E5"/>
<path d="M1482.66 227.878H1482.86C1484.05 244.738 1496.58 244.996 1496.58 244.996C1496.58 244.996 1482.76 245.266 1482.76 264.754C1482.76 245.266 1468.93 244.996 1468.93 244.996C1468.93 244.996 1481.45 244.738 1482.65 227.878H1482.66ZM1044.87 37.8036H1045.01C1045.86 50.1467 1054.91 50.3344 1054.91 50.3344C1054.91 50.3344 1044.94 50.5339 1044.94 64.7894C1044.94 50.5339 1034.97 50.3344 1034.97 50.3344C1034.97 50.3344 1044 50.1467 1044.87 37.8036Z" fill="#E1E4E5"/>
<path d="M1267.45 213.915H1035.04V292.714H1267.45V213.915Z" fill="white" stroke="#E1E4E5" stroke-width="4"/>
<path d="M1125.47 292.714H1030.17V211.369L1078.18 123.454L1125.47 211.264V292.714Z" fill="white" stroke="#E1E4E5" stroke-width="4"/>
<path d="M1158.8 228.417H1136.75V272.416H1158.8V228.417Z" fill="white"/>
<path d="M1157.62 270.433V230.377H1139.01V270.433H1157.62Z" fill="white" stroke="#E1E4E5" stroke-width="4"/>
<path d="M1179.63 228.417H1157.58V272.416H1179.63V228.417Z" fill="white"/>
<path d="M1177.38 270.433V230.377H1158.78V270.433H1177.38Z" fill="white" stroke="#E1E4E5" stroke-width="4"/>
<path d="M1080.56 228.417H1058.51V272.416H1080.56V228.417Z" fill="white"/>
<path d="M1079.36 270.433V230.388H1060.76V270.445H1079.36V270.433Z" fill="white" stroke="#E1E4E5" stroke-width="4"/>
<path d="M1101.38 228.417H1079.33V272.416H1101.38V228.417Z" fill="white"/>
<path d="M1099.12 270.433V230.388H1080.52V270.445H1099.12V270.433Z" fill="white" stroke="#E1E4E5" stroke-width="4"/>
<path d="M1080.36 205.01H1065.56V190.297C1065.56 182.107 1072.18 175.455 1080.36 175.455V204.998V205.01Z" fill="white"/>
<path d="M1067.06 203.684V189.311C1067.06 182.401 1072.65 176.792 1079.55 176.792V203.684H1067.06Z" fill="white" stroke="#E1E4E5" stroke-width="4"/>
<path d="M1094.34 205.01H1079.54V175.466C1087.71 175.466 1094.34 182.107 1094.34 190.297V205.01Z" fill="white"/>
<path d="M1080.33 203.684V176.792C1087.23 176.792 1092.83 182.401 1092.83 189.311V203.684H1080.33Z" fill="white" stroke="#E1E4E5" stroke-width="4"/>
<path d="M1236.93 228.417H1214.88V272.416H1236.93V228.417Z" fill="white"/>
<path d="M1235.74 270.433V230.377H1217.14V270.433H1235.74Z" fill="white" stroke="#E1E4E5" stroke-width="4"/>
<path d="M1257.76 228.417H1235.71V272.416H1257.76V228.417Z" fill="white"/>
<path d="M1274.71 214.467L1222.64 123.454H1077.82L1129.89 214.467H1274.71Z" fill="white" stroke="#E1E4E5" stroke-width="4"/>
<path d="M1255.5 230.388H1236.89V270.445H1255.5V230.388Z" fill="white" stroke="#E1E4E5" stroke-width="4"/>
<path d="M1360.8 327.737H1128.39V406.535H1360.8V327.737Z" fill="white" stroke="#E1E4E5" stroke-width="4"/>
<path d="M1267.45 292.714H1030.17V314.115H1267.45V292.714Z" fill="white" stroke="#E1E4E5" stroke-width="4"/>
<path d="M1218.83 406.524H1123.53V325.179L1171.54 237.264L1218.83 325.085V406.535V406.524Z" fill="white" stroke="#E1E4E5" stroke-width="4"/>
<path d="M1252.15 342.227H1230.1V386.226H1252.15V342.227Z" fill="white"/>
<path d="M1250.97 384.254V344.198H1232.37V384.254H1250.97Z" fill="white" stroke="#E1E4E5" stroke-width="4"/>
<path d="M1272.98 342.227H1250.93V386.226H1272.98V342.227Z" fill="white"/>
<path d="M1270.73 384.254V344.198H1252.13V384.254H1270.73Z" fill="white" stroke="#E1E4E5" stroke-width="4"/>
<path d="M1173.91 342.227H1151.86V386.226H1173.91V342.227Z" fill="white"/>
<path d="M1172.71 384.254V344.198H1154.11V384.254H1172.71Z" fill="white" stroke="#E1E4E5" stroke-width="4"/>
<path d="M1194.73 342.227H1172.68V386.226H1194.73V342.227Z" fill="white"/>
<path d="M1192.48 384.254V344.198H1173.87V384.254H1192.48Z" fill="white" stroke="#E1E4E5" stroke-width="4"/>
<path d="M1173.71 318.82H1158.91V304.107C1158.91 295.917 1165.53 289.276 1173.71 289.276V318.82Z" fill="white"/>
<path d="M1160.41 317.494V303.121C1160.41 296.21 1166 290.602 1172.9 290.602V317.494H1160.41Z" fill="white" stroke="#E1E4E5" stroke-width="4"/>
<path d="M1187.69 318.82H1172.89V289.276C1181.06 289.276 1187.69 295.917 1187.69 304.107V318.82Z" fill="white"/>
<path d="M1173.69 317.494V290.602C1180.58 290.602 1186.18 296.21 1186.18 303.121V317.494H1173.69Z" fill="white" stroke="#E1E4E5" stroke-width="4"/>
<path d="M1330.28 342.227H1308.23V386.226H1330.28V342.227Z" fill="white"/>
<path d="M1329.09 384.254V344.198H1310.49V384.254H1329.09Z" fill="white" stroke="#E1E4E5" stroke-width="4"/>
<path d="M1351.11 342.227H1329.06V386.226H1351.11V342.227Z" fill="white"/>
<path d="M1123.53 406.524V427.925H1360.8V406.524H1123.53Z" fill="white" stroke="#E1E4E5" stroke-width="4"/>
<path d="M1368.06 328.277L1315.99 237.264H1171.18L1223.24 328.277H1368.06Z" fill="#0093BA" stroke="#E1E4E5" stroke-width="4"/>
<path d="M1348.85 344.198H1330.24V384.254H1348.85V344.198Z" fill="white" stroke="#E1E4E5" stroke-width="4"/>
<path d="M1139.09 309.246H906.675V388.044H1139.09V309.246Z" fill="white" stroke="#E1E4E5" stroke-width="4"/>
<path d="M997.117 388.044H901.819V306.7L949.826 218.785L997.117 306.594V388.044Z" fill="white" stroke="#E1E4E5" stroke-width="4"/>
<path d="M1030.44 323.748H1008.39V367.746H1030.44V323.748Z" fill="white"/>
<path d="M1029.25 365.763V325.707H1010.65V365.763H1029.25Z" fill="white" stroke="#E1E4E5" stroke-width="4"/>
<path d="M1051.27 323.748H1029.22V367.746H1051.27V323.748Z" fill="white"/>
<path d="M1049.02 365.763V325.707H1030.42V365.763H1049.02Z" fill="white" stroke="#E1E4E5" stroke-width="4"/>
<path d="M952.195 323.748H930.145V367.746H952.195V323.748Z" fill="white"/>
<path d="M950.999 365.763V325.719H932.397V365.775H950.999V365.763Z" fill="white" stroke="#E1E4E5" stroke-width="4"/>
<path d="M973.026 323.748H950.975V367.746H973.026V323.748Z" fill="white"/>
<path d="M970.762 365.763V325.719H952.16V365.775H970.762V365.763Z" fill="white" stroke="#E1E4E5" stroke-width="4"/>
<path d="M951.996 300.34H937.194V285.627C937.194 277.438 943.821 270.785 951.996 270.785V300.329V300.34Z" fill="white"/>
<path d="M938.695 299.015V284.642C938.695 277.731 944.29 272.123 951.187 272.123V299.015H938.695Z" fill="white" stroke="#E1E4E5" stroke-width="4"/>
<path d="M965.977 300.34H951.175V270.797C959.35 270.797 965.977 277.438 965.977 285.639V300.352V300.34Z" fill="white"/>
<path d="M951.972 299.015V272.123C958.869 272.123 964.464 277.731 964.464 284.642V299.015H951.972Z" fill="white" stroke="#E1E4E5" stroke-width="4"/>
<path d="M1108.57 323.748H1086.52V367.746H1108.57V323.748Z" fill="white"/>
<path d="M1107.38 365.763V325.707H1088.78V365.763H1107.38Z" fill="white" stroke="#E1E4E5" stroke-width="4"/>
<path d="M1129.4 323.748H1107.35V367.746H1129.4V323.748Z" fill="white"/>
<path d="M1146.35 309.797L1094.28 218.785H949.462L1001.53 309.797H1146.35Z" fill="#EC8034" stroke="#E1E4E5" stroke-width="4"/>
<path d="M1127.13 325.719H1108.53V365.775H1127.13V325.719Z" fill="white" stroke="#E1E4E5" stroke-width="4"/>
<path d="M1139.09 388.044H901.807V409.445H1139.09V388.044Z" fill="white" stroke="#E1E4E5" stroke-width="4"/>
<path fill-rule="evenodd" clip-rule="evenodd" d="M776.929 452.423C776.929 452.423 861.999 368.485 981.541 367.312C1101.62 366.127 1197.16 449.56 1205.95 453.866" fill="white"/>
<path d="M776.929 452.423C776.929 452.423 861.999 368.485 981.541 367.312C1101.62 366.127 1197.16 449.56 1205.95 453.866" stroke="#E1E4E5" stroke-width="4"/>
<path fill-rule="evenodd" clip-rule="evenodd" d="M920.75 452.423C920.75 452.423 1005.82 368.485 1125.36 367.312C1245.44 366.127 1340.98 449.56 1349.77 453.866" fill="white"/>
<path d="M920.75 452.423C920.75 452.423 1005.82 368.485 1125.36 367.312C1245.44 366.127 1340.98 449.56 1349.77 453.866" stroke="#E1E4E5" stroke-width="4"/>
<path fill-rule="evenodd" clip-rule="evenodd" d="M0 452.423H1095.04C1095.04 452.423 1180.11 368.485 1299.66 367.312C1419.74 366.127 1515.27 449.56 1524.07 453.866H1681M839.714 328.769H839.761C840.957 328.769 841.931 329.743 841.931 330.94V428.828H837.544V330.94C837.544 329.743 838.518 328.769 839.714 328.769Z" fill="white"/>
<path d="M0 452.423H1095.04C1095.04 452.423 1180.11 368.485 1299.66 367.312C1419.74 366.127 1515.27 449.56 1524.07 453.866H1681M839.714 328.769H839.761C840.957 328.769 841.931 329.743 841.931 330.94V428.828H837.544V330.94C837.544 329.743 838.518 328.769 839.714 328.769Z" stroke="#E1E4E5" stroke-width="4"/>
<path fill-rule="evenodd" clip-rule="evenodd" d="M801.302 374.598C801.302 395.929 818.59 413.211 839.902 413.211C861.214 413.211 878.502 395.917 878.502 374.598C878.502 353.279 861.225 311.217 839.902 311.217C818.579 311.217 801.302 353.279 801.302 374.598Z" fill="white"/>
<path d="M801.302 374.598C801.302 395.929 818.59 413.211 839.902 413.211C861.214 413.211 878.502 395.917 878.502 374.598C878.502 353.279 861.225 311.217 839.902 311.217C818.579 311.217 801.302 353.279 801.302 374.598Z" stroke="#E1E4E5" stroke-width="4"/>
<path fill-rule="evenodd" clip-rule="evenodd" d="M1029.72 317.013H1029.76C1030.8 317.013 1031.65 317.858 1031.65 318.902V404.177H1027.82V318.902C1027.82 317.858 1028.67 317.013 1029.71 317.013H1029.72Z" fill="white" stroke="#E1E4E5" stroke-width="4"/>
<path fill-rule="evenodd" clip-rule="evenodd" d="M996.261 356.94C996.261 375.513 1011.31 390.579 1029.89 390.579C1048.47 390.579 1063.52 375.513 1063.52 356.94C1063.52 338.367 1048.47 301.725 1029.89 301.725C1011.31 301.725 996.261 338.367 996.261 356.94Z" fill="white"/>
<path d="M996.261 356.94C996.261 375.513 1011.31 390.579 1029.89 390.579C1048.47 390.579 1063.52 375.513 1063.52 356.94C1063.52 338.367 1048.47 301.725 1029.89 301.725C1011.31 301.725 996.261 338.367 996.261 356.94Z" stroke="#E1E4E5" stroke-width="4"/>
<path fill-rule="evenodd" clip-rule="evenodd" d="M1154.17 339.74H1154.22C1155.41 339.74 1156.39 340.713 1156.39 341.91V439.798H1152V341.91C1152 340.713 1152.97 339.74 1154.17 339.74Z" fill="white" stroke="#E1E4E5" stroke-width="4"/>
<path fill-rule="evenodd" clip-rule="evenodd" d="M1115.76 385.569C1115.76 406.899 1133.03 424.182 1154.36 424.182C1175.68 424.182 1192.96 406.899 1192.96 385.569C1192.96 364.238 1175.68 322.187 1154.36 322.187C1133.03 322.187 1115.76 364.25 1115.76 385.569Z" fill="white"/>
<path d="M1115.76 385.569C1115.76 406.899 1133.03 424.182 1154.36 424.182C1175.68 424.182 1192.96 406.899 1192.96 385.569C1192.96 364.238 1175.68 322.187 1154.36 322.187C1133.03 322.187 1115.76 364.25 1115.76 385.569Z" stroke="#E1E4E5" stroke-width="4"/>
<path fill-rule="evenodd" clip-rule="evenodd" d="M1289.24 333.416H1289.27C1290.15 333.416 1290.86 334.131 1290.86 334.999V406.653H1287.64V334.999C1287.64 334.119 1288.36 333.416 1289.23 333.416H1289.24Z" fill="white" stroke="#E1E4E5" stroke-width="4"/>
<path fill-rule="evenodd" clip-rule="evenodd" d="M1261.13 366.96C1261.13 382.565 1273.77 395.225 1289.38 395.225C1304.99 395.225 1317.64 382.565 1317.64 366.96C1317.64 351.355 1304.99 320.568 1289.38 320.568C1273.77 320.568 1261.13 351.355 1261.13 366.96Z" fill="white"/>
<path d="M1261.13 366.96C1261.13 382.565 1273.77 395.225 1289.38 395.225C1304.99 395.225 1317.64 382.565 1317.64 366.96C1317.64 351.355 1304.99 320.568 1289.38 320.568C1273.77 320.568 1261.13 351.355 1261.13 366.96Z" stroke="#E1E4E5" stroke-width="4"/>
<path fill-rule="evenodd" clip-rule="evenodd" d="M1379.75 316.168H1379.79C1380.74 316.168 1381.51 316.942 1381.51 317.893V395.495H1378.04V317.893C1378.04 316.942 1378.81 316.168 1379.76 316.168H1379.75Z" fill="white" stroke="#E1E4E5" stroke-width="4"/>
<path fill-rule="evenodd" clip-rule="evenodd" d="M1349.3 352.493C1349.3 369.401 1363 383.105 1379.9 383.105C1396.81 383.105 1410.51 369.401 1410.51 352.493C1410.51 335.586 1396.81 302.241 1379.9 302.241C1363 302.241 1349.3 335.586 1349.3 352.493Z" fill="white"/>
<path d="M1349.3 352.493C1349.3 369.401 1363 383.105 1379.9 383.105C1396.81 383.105 1410.51 369.401 1410.51 352.493C1410.51 335.586 1396.81 302.241 1379.9 302.241C1363 302.241 1349.3 335.586 1349.3 352.493Z" stroke="#E1E4E5" stroke-width="4"/>
</g>
<g opacity="0.5" clip-path="url(#clip0_0_1)">
<path d="M542.071 344.552H450.821C442.031 344.552 434.905 351.677 434.905 360.465V440.352C434.905 449.141 442.031 456.265 450.821 456.265H542.071C550.862 456.265 557.988 449.141 557.988 440.352V360.465C557.988 351.677 550.862 344.552 542.071 344.552Z" fill="#B1BCBC"/>
<path d="M463.817 316.631H372.567C363.777 316.631 356.651 323.756 356.651 332.545V440.36C356.651 449.149 363.777 456.273 372.567 456.273H463.817C472.608 456.273 479.734 449.149 479.734 440.36V332.545C479.734 323.756 472.608 316.631 463.817 316.631Z" fill="#E1E4E5"/>
<path d="M369.233 356.774H277.983C269.193 356.774 262.066 363.898 262.066 372.687V440.352C262.066 449.141 269.193 456.265 277.983 456.265H369.233C378.023 456.265 385.15 449.141 385.15 440.352V372.687C385.15 363.898 378.023 356.774 369.233 356.774Z" fill="#CFD1D1"/>
<path fill-rule="evenodd" clip-rule="evenodd" d="M267.995 422.911C267.995 422.911 273.431 433.891 268.974 437.352C264.51 440.813 252.715 447.298 252.715 447.298L283.96 445.333L277.012 421.383L267.995 422.911Z" fill="#F8AE9D"/>
<path fill-rule="evenodd" clip-rule="evenodd" d="M280.864 432.848C279.885 433.318 281.501 437.734 278.039 437.416C274.577 437.105 272.412 432.546 269.858 432.841C267.303 433.135 265.687 437.726 260.833 440.925C255.978 444.123 248.776 447.943 249.261 451.157C249.747 454.372 261.072 455.231 266.809 454.173C272.547 453.107 275.229 450.799 278.954 450.982C282.678 451.165 285.018 450.712 286.188 448.317C287.358 445.922 282.002 432.292 280.872 432.841L280.864 432.848ZM315.061 326.132C305.598 326.554 252.962 338.194 243.396 340.176C233.83 342.157 225.745 352.859 233.042 365.247C241.232 379.156 262.369 418.662 267.502 427.573C270.041 431.981 282.853 429.507 279.845 422.115C274.235 408.326 271.632 373.674 257.323 361.046C257.323 361.046 305.431 369.417 326.21 359.829C341.315 352.859 337.893 325.121 315.061 326.148V326.132Z" fill="#16282B"/>
<path fill-rule="evenodd" clip-rule="evenodd" d="M249.078 267.1C249.078 267.1 249.19 261.475 246.492 257.457C243.794 253.438 243.691 249.166 241.653 249.301C239.616 249.436 241.637 259.366 241.637 259.366C241.637 259.366 239.051 258.38 237.197 257.13C235.342 255.881 229.708 249.723 228.395 250.813C226.166 252.675 229.756 263.162 231.713 265.254C233.679 267.355 243.372 273.211 243.372 273.211L271.911 301.959L276.176 286.698L249.078 267.092V267.1Z" fill="#F8AE9D"/>
<path fill-rule="evenodd" clip-rule="evenodd" d="M306.163 264.562C301.762 274.763 293.709 293.509 290.39 299.103C286.228 306.105 279.662 309.192 271.982 303.996C270.375 302.906 265.759 299.111 265.759 299.111C266.443 292.459 268.926 286.889 273.216 282.417L276.129 284.828C276.129 284.828 284.389 263.663 291.027 251.402C296.78 240.795 312.864 249.054 306.171 264.57L306.163 264.562ZM325.176 224.953V233.984L331.805 228.645C331.805 228.645 333.842 219.996 335.498 213.567C336.54 209.541 339.071 195.903 328.876 196.539C320.528 181.819 296.2 190.93 296.009 208.912C295.778 230.539 295.969 238.965 295.969 238.965C309.721 239.753 317.464 237.764 325.176 224.945V224.953Z" fill="#0093BA"/>
<path fill-rule="evenodd" clip-rule="evenodd" d="M331.956 242.148C331.956 242.148 325.789 240.7 325.574 230.594C325.359 220.489 325.51 217.036 325.51 217.036L311.925 216.789C311.925 216.789 311.774 228.048 311.774 232.122C311.774 242.028 304.484 242.84 304.484 242.84C304.484 242.84 305.726 251.012 318.045 251.704C327.659 252.245 331.964 242.14 331.964 242.14L331.956 242.148Z" fill="#F8AE9D"/>
<path fill-rule="evenodd" clip-rule="evenodd" d="M328.677 211.991C334.742 211.761 333.747 220.625 327.452 220.617C327.452 220.617 323.791 233.22 311.097 233.22C300.783 233.22 300.115 218.532 300.02 215.604C299.916 212.477 299.908 202.213 299.908 202.213L328.908 202.197L328.669 211.991H328.677Z" fill="#FFCDC5"/>
<path fill-rule="evenodd" clip-rule="evenodd" d="M329.147 211.928C326.632 212.342 326.943 214.005 326.258 213.861C322.788 213.121 308.75 214.1 306.943 206.382C304.691 211.204 304.142 212.389 299.192 213.686V199.555L330.516 196.547C330.516 196.547 330.03 211.785 329.147 211.936V211.928Z" fill="#0093BA"/>
<path fill-rule="evenodd" clip-rule="evenodd" d="M330.579 241.113C322.836 245.856 313.891 247.59 305.558 242.442C291.966 269.241 288.575 301.227 291.846 336.571C311.67 344.417 328.335 342.873 342.517 333.906L330.579 241.113Z" fill="#0093BA"/>
<path fill-rule="evenodd" clip-rule="evenodd" d="M234.109 423.348C234.109 423.348 234.276 436.27 223.62 441.108C212.972 445.937 205.387 445.651 206.358 449.383C207.321 453.115 235.032 452.963 237.618 450.043C239.823 447.561 244.622 424.414 245.943 426.189L234.109 423.348Z" fill="#F8AE9D"/>
<path fill-rule="evenodd" clip-rule="evenodd" d="M241.844 441.601C240.213 440.423 238.836 447.195 234.403 445.317C229.97 443.431 233.464 437.209 230.679 436.063C227.885 434.917 222.498 441.092 215.343 442.588C208.189 444.084 202.379 445.396 200.724 448.181C199.299 450.576 200.724 451.34 200.724 451.34C200.724 451.34 207.616 454.778 211.897 455.541C218.113 456.639 236.09 457.371 238.056 455.366C239.266 454.133 242.664 442.19 241.844 441.601ZM344.697 322.13C344.697 322.13 358.449 351.164 339.127 361.134C320.44 370.778 264.494 359.375 264.494 359.375C264.494 359.375 265.496 367.42 264.494 374.597C261.883 393.343 249.468 424.573 246.834 428.496C243.197 433.923 232.135 429.833 231.928 425.313C231.721 420.794 240.269 363.083 241.574 352.079C242.871 341.075 246.953 339.475 258.883 336.468C261.621 335.776 294.035 327.723 297.003 327.954C322.518 329.975 344.705 322.13 344.705 322.13H344.697Z" fill="#1D3338"/>
<path fill-rule="evenodd" clip-rule="evenodd" d="M330.237 241.129C317.416 283.117 309.729 342.65 349.767 332.298C328.494 293.143 357.415 275.519 350.857 255.284C348.613 248.362 330.404 240.588 330.237 241.129ZM306.235 242.148C301.341 254.417 298.993 264.045 296.796 282.051C294.966 297.05 295.881 328.002 295.881 328.002L289.833 329.187C289.833 329.187 285.511 281.367 286.952 275.216C289.379 264.888 291.019 258.849 294.226 249.404C295.993 244.217 306.235 242.148 306.235 242.148Z" fill="#0093BA"/>
<path fill-rule="evenodd" clip-rule="evenodd" d="M327.547 288.806C327.547 288.806 319.653 280.905 316.915 279.99C314.185 279.075 299.208 277.969 299.311 280.046C299.423 282.266 309.06 282.139 309.951 283.229C310.843 284.319 312.084 292.825 315.451 293.66C318.817 294.496 325.781 296.978 325.781 296.978L356.802 313.003L353.499 296.978L327.547 288.806Z" fill="#F8AE9D"/>
<path fill-rule="evenodd" clip-rule="evenodd" d="M351.311 255.34C360.717 268.62 368.755 288.838 371.835 296.723C374.923 304.609 371.811 316.504 358.25 314.165C356.635 313.886 354.009 312.868 354.009 312.868C349.019 306.033 348.151 300.169 350.014 294.949L351.764 295.689C351.764 295.689 338.291 271.803 334.996 265.405C329.497 254.712 343.018 243.644 351.311 255.348V255.34Z" fill="#0093BA"/>
<path fill-rule="evenodd" clip-rule="evenodd" d="M350.229 186.999C350.229 184.365 352.369 182.225 355.003 182.225H393.466C396.1 182.225 398.241 184.365 398.241 186.999V214.108C398.241 216.742 396.1 218.882 393.466 218.882H362.349C361.864 218.882 361.394 219.033 360.988 219.304L351.478 225.876C351.12 226.123 350.618 226.035 350.372 225.669C350.276 225.534 350.229 225.375 350.229 225.216V186.999Z" fill="#0093BA"/>
<path d="M363.248 194.518C362.373 194.518 361.656 195.234 361.656 196.11V196.261C361.656 197.136 362.373 197.852 363.248 197.852H385.221C386.096 197.852 386.813 197.136 386.813 196.261V196.11C386.813 195.234 386.096 194.518 385.221 194.518H363.248ZM363.248 203.247C362.373 203.247 361.656 203.963 361.656 204.838V204.989C361.656 205.865 362.373 206.581 363.248 206.581H376.499C377.374 206.581 378.09 205.865 378.09 204.989V204.838C378.09 203.963 377.374 203.247 376.499 203.247H363.248Z" fill="white" stroke="white" stroke-width="2"/>
<path fill-rule="evenodd" clip-rule="evenodd" d="M529.99 169.59C529.99 166.956 532.131 164.816 534.765 164.816H573.228C575.862 164.816 578.003 166.956 578.003 169.59V196.698C578.003 199.332 575.862 201.473 573.228 201.473H542.111C541.626 201.473 541.156 201.616 540.75 201.894L531.24 208.467C530.882 208.713 530.38 208.626 530.134 208.268C530.038 208.132 529.99 207.973 529.99 207.814V169.598V169.59Z" fill="#EC8034"/>
<path d="M543.002 177.109C542.127 177.109 541.411 177.825 541.411 178.7V178.851C541.411 179.727 542.127 180.443 543.002 180.443H564.975C565.851 180.443 566.567 179.727 566.567 178.851V178.7C566.567 177.825 565.851 177.109 564.975 177.109H543.002ZM543.002 185.837C542.127 185.837 541.411 186.554 541.411 187.429V187.58C541.411 188.455 542.127 189.171 543.002 189.171H556.253C557.128 189.171 557.845 188.455 557.845 187.58V187.429C557.845 186.554 557.128 185.837 556.253 185.837H543.002Z" fill="white" stroke="white" stroke-width="2"/>
<path fill-rule="evenodd" clip-rule="evenodd" d="M62.1697 112.818C62.1697 110.184 60.0289 108.044 57.3947 108.044H18.9322C16.298 108.044 14.1572 110.184 14.1572 112.818V139.919C14.1572 142.552 16.298 144.693 18.9322 144.693H50.0492C50.5346 144.693 51.0042 144.844 51.41 145.115L60.9202 151.687C61.2783 151.934 61.7797 151.846 62.0264 151.488C62.1219 151.353 62.1697 151.194 62.1697 151.034V112.818Z" fill="#EC8034"/>
<path d="M49.15 120.337C50.0254 120.337 50.7416 121.053 50.7416 121.928V122.08C50.7416 122.955 50.0254 123.671 49.15 123.671H27.1771C26.3017 123.671 25.5854 122.955 25.5854 122.08V121.928C25.5854 121.053 26.3017 120.337 27.1771 120.337H49.15ZM49.15 129.066C50.0254 129.066 50.7416 129.782 50.7416 130.657V130.808C50.7416 131.683 50.0254 132.4 49.15 132.4H35.8994C35.024 132.4 34.3077 131.683 34.3077 130.808V130.657C34.3077 129.782 35.024 129.066 35.8994 129.066H49.15Z" fill="white" stroke="white" stroke-width="2"/>
<path fill-rule="evenodd" clip-rule="evenodd" d="M248.099 182.639V220.855C248.099 221.014 248.052 221.174 247.956 221.309C247.709 221.667 247.208 221.762 246.85 221.516L237.34 214.943C236.942 214.665 236.464 214.522 235.987 214.522H204.87C202.236 214.522 200.095 212.381 200.095 209.748V182.639C200.095 180.005 202.236 177.865 204.87 177.865H243.332C245.967 177.865 248.107 180.005 248.107 182.639H248.099Z" fill="#0093BA"/>
<path d="M213.107 190.158C212.231 190.158 211.515 190.874 211.515 191.749V191.901C211.515 192.776 212.231 193.492 213.107 193.492H235.08C235.955 193.492 236.671 192.776 236.671 191.901V191.749C236.671 190.874 235.955 190.158 235.08 190.158H213.107ZM221.837 198.887C220.962 198.887 220.245 199.603 220.245 200.478V200.629C220.245 201.504 220.962 202.221 221.837 202.221H235.088C235.963 202.221 236.679 201.504 236.679 200.629V200.478C236.679 199.603 235.963 198.887 235.088 198.887H221.837Z" fill="white" stroke="white" stroke-width="2"/>
<path d="M115.474 136.999C114.941 139.131 115.65 141.343 116.811 143.205C117.639 144.518 118.785 143.07 120.464 142.839C123.059 142.473 124.706 139.728 125.271 133.028C125.534 128.135 125.406 125.7 125.136 125.27C124.165 123.743 121.674 123.233 119.7 123.377" fill="#3F3531"/>
<path fill-rule="evenodd" clip-rule="evenodd" d="M120.194 428.067C120.194 428.067 120.034 438.124 126.242 441.697C132.449 445.269 142.071 451.905 142.071 451.905L105.479 453.138L106.521 427.979L120.194 428.067Z" fill="#F8AE9D"/>
<path fill-rule="evenodd" clip-rule="evenodd" d="M66.7457 426.3L62.4482 452.367L78.2773 452.287L78.7787 425.886L66.7457 426.292V426.3Z" fill="#F8AE9D"/>
<path d="M133.524 351.14C133.619 340.621 134.471 264.952 134.471 264.952L74.513 264.737C74.513 264.737 67.462 322.543 67.5575 333.611C67.653 344.679 69.7301 349.541 66.7776 357.482C63.825 365.423 61.3022 428.806 61.3022 428.806L83.1398 430.621C83.1398 430.621 97.0907 362.797 98.6108 353.392C98.9689 351.156 100.306 344.942 102.12 336.762C103.171 346.111 103.903 353.01 103.991 354.546C104.301 360.434 100.783 370.602 100.855 381.615C100.927 392.635 102.136 431.456 102.136 431.456L124.165 431.814C124.165 431.814 133.42 361.651 133.524 351.124V351.14Z" fill="#E0DDCD"/>
<path d="M140.026 446.534C131.813 442.723 125.828 437.304 124.69 436.747C123.544 436.19 121.236 435.872 119.605 437.185C117.981 438.498 116.692 441.943 113.007 442.055C108.264 442.19 105.535 436.389 104.206 439.15L103.609 455.462H112.108L112.689 453.361C112.689 453.361 115.888 453.234 117.735 454.141C119.692 455.104 119.955 455.565 119.955 455.565L146.91 455.621C146.91 455.621 148.239 450.346 140.018 446.534H140.026Z" fill="#181B21"/>
<path d="M80.3704 444.489L80.3545 439.668C80.3545 438.681 79.686 437.822 78.7389 437.567L75.4203 436.676C73.1044 433.294 69.953 433.414 67.2551 437.098L64.0877 437.782C63.1088 437.997 62.4005 438.848 62.3687 439.843L62.2095 444.712C59.9414 447.234 58.883 454.595 58.7954 455.223C58.7954 455.255 58.7954 455.287 58.7954 455.311C59.0023 458.891 82.5589 458.828 84.3654 455.414C84.4132 455.319 84.4291 455.199 84.4052 455.096C84.2142 453.894 82.925 446.463 80.3863 444.473L80.3704 444.489Z" fill="#181B21"/>
<path fill-rule="evenodd" clip-rule="evenodd" d="M183.414 160.805C183.414 160.805 181.592 150.645 182.244 148.592C182.802 146.817 188.094 144.247 188.094 144.247C188.094 144.247 197.302 129.71 199.315 131.19C200.954 132.392 194.524 143.109 194.524 143.109C194.524 143.109 200.389 149.26 200.31 152.013C200.23 154.766 190.736 163.375 190.736 163.375L183.414 160.805ZM88.7981 163.192C88.7981 163.192 94.8623 161.768 95.0692 151.838C95.2762 141.908 95.1329 138.518 95.1329 138.518L109.506 138.28C109.506 138.28 109.649 149.348 109.657 153.35C109.657 162.071 116.135 164.418 116.135 164.418C116.135 164.418 115.594 173.95 103.497 174.626C94.0506 175.159 88.7981 163.192 88.7981 163.192Z" fill="#EAD1BB"/>
<path fill-rule="evenodd" clip-rule="evenodd" d="M93.8119 133.49C87.8511 133.259 88.83 141.98 95.0136 141.964C95.0136 141.964 101.667 155.331 112.108 155.371C117.138 155.387 118.777 150.907 120.289 147.764C121.801 144.621 122.907 139.919 122.995 137.038C123.09 133.967 123.106 123.878 123.106 123.878L93.5811 123.862L93.8119 133.49Z" fill="#F2E5DA"/>
<path fill-rule="evenodd" clip-rule="evenodd" d="M116.366 163.821C116.366 163.821 131.853 168.651 135.585 174.427C147.602 184.986 162.635 199.483 162.635 199.483C162.635 199.483 176.952 163.558 181.632 159.461C184.831 156.66 191.213 160.121 192.407 163.686C193.935 168.261 184.131 195.091 179.499 207.766C178.6 210.225 177.899 212.143 177.509 213.273C174.684 221.468 167.816 226.163 159.452 220.959C156.086 218.858 146.05 211.984 137.495 205.745C137.36 212.294 137.137 219.2 136.922 225.749C136.405 241.67 135.951 255.555 137.041 257.353C142.437 266.289 135.259 272.423 111.503 274.683C87.7396 276.935 66.6581 275.089 70.486 263.162C71.2819 260.679 71.2739 255.324 70.876 248.378C68.5442 248.251 66.2204 248.099 63.8966 247.916C53.9805 247.137 46.643 242.872 45.6243 231.812C44.908 224.062 59.6707 187.691 65.2097 175.732C66.5069 172.932 68.5044 171.189 70.7725 170.322C71.2978 169.733 71.8946 169.319 72.5631 169.096C76.6298 167.76 91.2094 161.633 91.2094 161.633L108.551 172.979L116.374 163.821H116.366ZM69.2605 227.849L69.2207 227.953H69.2684L69.2605 227.849Z" fill="#EC8034"/>
<path fill-rule="evenodd" clip-rule="evenodd" d="M107.739 237.453C107.739 237.453 113.031 236.387 115.196 234.692C117.361 232.997 123.918 231.788 123.918 231.788L121.825 236.204C121.825 236.204 137.893 234.692 138.275 236.284C138.657 237.867 134.009 239.594 134.009 239.594C134.009 239.594 131.717 243.874 129.497 246.357C127.396 248.704 116.971 248.426 113.31 246.962C110.15 245.697 106.712 246.325 106.712 246.325L107.739 237.453Z" fill="#EAD1BB"/>
<path d="M95.4355 124.276C96.303 125.413 97.8389 125.668 99.1043 125.891C100.807 126.193 101.643 126.822 102.526 128.517C103.083 129.599 103.641 130.784 104.643 131.365C105.455 131.843 105.431 130.633 105.55 129.694C105.558 129.607 105.582 129.519 105.598 129.432C105.789 128.684 106.585 128.811 106.816 129.543C107.031 130.211 107.484 130.776 108.057 131.095C108.153 131.142 108.248 131.19 108.352 131.174C108.487 131.158 108.591 131.023 108.678 130.912C108.861 130.673 109.044 130.363 109.235 130.044C109.856 128.97 111.042 129.352 111.742 130.371C112.18 131.007 112.697 131.668 113.405 131.811C113.636 131.858 113.923 131.827 114.026 131.596C114.161 131.317 113.947 131.039 113.986 130.76C114.018 130.498 114.13 130.379 114.249 130.156C114.726 129.288 115.849 129.257 116.525 129.981C116.995 130.482 117.488 130.967 118.005 131.429C118.22 131.62 118.538 131.819 118.761 131.62C118.881 131.516 118.905 131.341 118.928 131.174C119.048 130.355 119.167 129.535 119.294 128.723C119.366 128.27 119.605 127.665 120.019 127.785C120.218 127.84 120.337 128.055 120.448 128.246C120.584 128.493 123.003 131.278 123.051 131.063C123.425 129.479 124.197 128.039 124.571 126.456C127.006 116.263 116.199 108.076 107.954 108.028C106.116 108.012 104.444 108.044 102.662 108.473C100.76 108.935 98.7541 109.675 97.0351 110.709C94.6158 112.157 92.7854 114.791 93.2629 117.934" fill="#3F3531"/>
<path d="M102.144 120.982C103.306 122.31 103.616 124.18 103.728 125.955C103.887 128.62 103.672 131.389 102.447 133.76C102.096 134.436 101.842 137.77 101.309 137.587C101.141 137.532 101.165 134.946 100.72 133.553C100.027 131.397 96.8201 130.569 95.3796 131.938C93.0717 134.11 94.4246 136.744 95.1886 138.391C95.6423 139.386 96.3665 140.492 96.4938 141.542C96.645 142.887 96.6928 147.772 95.8253 148.918C95.1011 149.873 94.3291 145.258 93.6766 144.343C88.822 137.563 84.1664 120.305 92.4589 116.558C93.7164 115.985 97.608 115.69 98.7858 116.422" fill="#3F3531"/>
<path d="M582.102 358.269C588.357 356.153 593.784 351.649 596.952 345.873C597.843 344.281 598.575 342.451 598.336 340.637C598.273 340.271 598.177 339.833 597.851 339.658C597.549 339.483 597.151 339.579 596.816 339.674C586.359 342.499 575.305 347.249 564.339 346.748C563.837 346.748 563.336 346.7 562.898 346.891C562.357 347.114 562.015 347.615 561.776 348.148C560.948 349.875 560.224 353.145 560.503 355.095C560.837 357.41 563.073 357.744 565.039 358.246C570.642 359.67 576.523 360.163 582.109 358.269H582.102Z" fill="#16282B"/>
<path d="M583.064 345.292C583.908 344.934 584.783 344.584 585.683 344.56C586.582 344.536 587.585 345.021 587.871 345.897C588.062 346.501 587.887 347.138 587.64 347.703C586.98 349.167 585.826 350.352 584.6 351.403C579.921 355.349 573.928 357.736 567.792 358.11C565.079 358.269 562.237 358.023 559.842 356.75C561.036 355.294 560.797 353.217 560.924 351.379C561.306 345.992 565.898 348.037 569.583 348.029C574.207 347.933 578.807 347.034 583.048 345.284L583.064 345.292Z" fill="#F7E9D7"/>
<path d="M456.034 240.914C472.237 240.588 486.865 235.91 496.184 237.907C505.503 239.912 506.012 216.049 496.82 208.689C487.629 201.329 507.23 180.188 495.285 170.767C483.339 161.354 476.614 165.301 476.614 165.301C476.614 165.301 466.372 163.67 463.618 181.756C460.562 201.855 452.397 198.544 439.441 214.872C431.865 224.412 439.839 241.249 456.034 240.914Z" fill="#3F3531"/>
<path d="M575.528 288.178C570.96 276.028 552.513 280.293 543.949 284.486C536.867 287.963 530.667 293.024 524.69 298.148C522.279 300.185 519.907 302.293 517.568 304.362C515.721 302.46 513.684 299.986 511.941 297.981C510.063 295.808 507.922 293.772 505.328 292.49C502.606 291.114 500.091 291.305 497.186 290.891C495.881 290.708 494.616 290.318 493.351 290.095C489.547 289.403 485.52 290.143 482.169 292.101C478.994 293.962 476.415 296.167 472.691 296.875C468.457 297.678 463.547 297.201 459.305 296.636C455.501 296.111 451.625 295.244 447.829 295.991C446.253 296.302 445.649 298.506 445.123 299.763C444.423 301.593 443.691 303.487 442.99 305.452L442.784 306.049C441.311 310.314 440.173 314.714 439.704 319.225C438.844 327.516 440.468 337.208 446.707 343.231C455.023 351.259 468.361 352.501 479.201 350.583C483.641 349.803 487.82 347.949 491.369 345.18C494.902 348.379 498.699 351.888 501.858 355.445C508.209 353.225 514.249 350.217 519.836 346.477C533.07 352.533 546.568 356.622 560.813 359.582C562.445 355.532 563.583 351.299 564.219 346.979C564.331 346.278 555.449 340.287 554.423 339.436C551.351 336.842 544.944 330.922 544.944 330.922C544.944 330.922 553.014 324.047 556.547 320.825C560.28 317.467 563.869 313.95 567.283 310.274C570.108 307.234 572.87 304.036 574.597 300.24C576.332 296.485 576.968 292.045 575.52 288.138L575.528 288.178Z" fill="#EC8034"/>
<path d="M415.383 245.028C414.452 243.111 414.508 240.883 414.842 238.798C416.306 229.87 422.561 222.407 429.74 216.933C436.942 211.45 445.179 207.536 452.755 202.618C454.721 201.337 456.695 199.961 458.947 199.269C461.207 198.576 463.825 198.656 465.687 200.104C467.001 201.122 467.765 202.706 468.202 204.281C469.173 207.743 468.799 211.403 468.202 214.904C467.462 219.328 466.38 223.704 464.597 227.77C463.165 231.048 460.841 234.422 457.347 235.066C456.336 238.989 454.251 242.657 451.331 245.466C447.988 248.688 443.754 250.797 439.353 252.269C435.303 253.629 430.87 254.513 426.795 253.248C424.376 252.508 422.243 251.091 420.166 249.635C418.304 248.402 416.378 247.049 415.375 245.012L415.383 245.028ZM451.991 239.068L454.387 235.273C453.877 235.329 453.4 235.424 452.906 235.623C451.593 236.188 450.805 238.257 451.991 239.068Z" fill="#3F3531"/>
<path d="M496.303 181.207C496.43 181.875 496.446 182.583 496.406 183.387C496.136 188.073 495.125 192.688 493.422 197.065C492.38 199.658 491.098 202.221 489.292 204.369C488.544 205.26 487.692 206.088 486.586 206.406C485.44 206.724 484 206.772 482.869 206.485C481.867 210.623 482.288 218.429 485.862 221.357C486.952 222.248 488.249 222.797 489.546 223.29C492.077 224.269 494.711 225.009 497.346 225.582C500.346 226.226 503.625 226.712 505.734 228.924C505.996 229.194 506.259 229.568 506.155 229.934C506.084 230.165 505.917 230.332 505.71 230.459C504.046 231.804 501.993 232.544 499.94 233.252C496.343 234.469 492.642 235.48 488.878 236.164C484.947 236.872 480.896 237.215 476.917 236.785C473.845 236.435 470.805 235.655 468.019 234.271C465.099 232.822 462.098 231.637 459.074 230.252C456.512 229.075 453.989 227.73 451.219 227.253C452.532 224.762 455.262 223.362 457.984 222.701C460.706 222.073 463.555 222.017 466.308 221.492C467.215 221.301 468.123 221.086 468.903 220.529C471.035 218.986 470.454 215.564 470.486 213.32L470.598 206.223C470.279 202.833 468.887 200.001 467.661 196.905C465.791 192.155 465.401 186.76 467.048 181.899C468.696 177.069 472.444 172.876 477.259 171.173C482.074 169.47 487.851 170.433 491.544 173.966C493.884 176.242 495.794 178.278 496.319 181.199L496.303 181.207Z" fill="#F7E9D7"/>
<path d="M493.916 171.571C490.677 167.927 486.299 165.579 481.509 166.12C481.087 166.16 480.721 166.208 480.402 166.311C478.524 166.717 474.434 168.484 473.351 170.775C471.521 170.998 469.659 171.619 468.664 172.12C468.353 172.247 468.043 172.438 467.685 172.677C463.626 175.295 461.724 179.878 461.517 184.747C461.334 188.837 462.639 192.975 465.258 196.054C465.632 196.492 466.077 196.937 466.658 197.136C468.115 197.55 469.285 196.006 470.033 194.685C471.25 192.545 471.76 190.46 472.683 188.296C473.606 186.132 475.667 184.66 476.153 182.313C476.383 181.143 477.235 178.907 477.808 176.751C479.129 177.626 480.378 178.39 481.039 178.931C482.901 180.443 485.432 180.284 487.517 181.374C489.602 182.472 491.305 183.761 493.605 184.652C495.014 185.209 496.9 185.662 497.767 184.421C498.094 183.904 498.157 183.267 498.173 182.694C498.253 178.644 496.653 174.618 493.923 171.563L493.916 171.571Z" fill="#3F3531"/>
<path d="M503.768 227.873C504.405 227.579 505.177 227.794 505.598 228.367C510.381 235.066 512.236 243.461 513.851 251.553C515.689 260.751 517.321 269.981 518.889 279.211C518.984 279.68 519.04 280.181 518.833 280.619C518.626 281.057 518.157 281.279 517.719 281.47C514.957 282.799 512.156 284.096 509.387 285.425C506.402 278.638 504.253 271.508 502.98 264.204C501.205 268.692 497.998 272.599 493.908 275.145C496.956 279.505 500.704 288.234 504.365 292.077C504.922 292.689 508.384 291.735 509.164 291.48C509.641 292.857 507.389 291.385 507.405 292.793C505.328 293.095 502.662 291.854 500.529 291.583C497.95 291.281 495.348 291.265 492.762 291.536C488.472 292.005 484.294 293.35 480.482 295.363C478.588 296.373 476.765 297.519 475.038 298.792C473.55 299.906 469.858 302.532 469.858 302.532C469.587 302.731 468.322 302.444 468.019 302.373C467.144 302.222 466.26 302.11 465.377 302.031C463.157 301.856 460.952 301.569 458.764 301.163C454.387 300.36 450.089 299.127 445.967 297.424C445.569 297.113 446.985 294.193 447.065 293.628C446.993 294.161 438.868 293.501 438.064 293.358C434.857 292.705 431.618 292.355 428.419 291.671C429.851 278.773 433.791 266.313 437.658 253.956C439.17 249.094 440.722 244.225 442.863 239.641C445.147 234.756 448.1 230.181 451.641 226.115C451.744 226.019 451.912 225.948 452.047 225.988C453.75 226.417 464.12 229.083 469.277 231C471.903 232.011 474.569 232.918 477.267 233.833C478.333 234.183 479.431 234.533 480.538 234.517C481.278 234.493 482.01 234.334 482.718 234.183C489.905 232.584 497.099 230.857 503.768 227.873Z" fill="white"/>
<path d="M456.973 253.574C456.679 255.412 456.281 257.282 455.883 259.112C454.92 263.273 453.686 267.371 452.182 271.373C451.418 273.37 450.614 275.336 449.715 277.293C449.269 278.264 448.808 279.226 448.33 280.181C448.092 280.643 447.845 281.144 447.606 281.614C447.399 282.011 447.161 282.377 446.954 282.743C448.394 282.696 455.501 283.109 456.973 283.229" stroke="white" stroke-width="1.38" stroke-miterlimit="10" stroke-linecap="round"/>
<path d="M457.204 284.677C457.053 285.616 456.87 286.555 456.663 287.478L456.018 290.278C455.803 291.082 455.318 292.077 455.31 292.912C455.31 292.745 461.008 292.26 461.549 292.204C467.486 291.623 473.447 291.281 479.384 290.899C483.235 290.66 487.016 290.748 490.868 290.772C492.006 290.788 493.343 290.676 493.963 289.745C494.481 288.95 494.059 287.939 494.473 287.207C494.743 287.279 497.839 288.059 497.807 287.995C497.934 288.703 498.173 290.175 498.905 290.525C499.176 290.629 499.439 290.668 499.709 290.668C500.115 290.668 500.513 290.613 500.919 290.557C500.983 290.557 501.038 290.533 501.086 290.493C501.158 290.43 501.086 290.326 501.022 290.223C500.107 288.87 499.63 287.279 499.653 285.648C498.69 284.995 497.735 284.247 496.908 283.428C496.247 282.751 495.762 281.868 495.03 281.287C494.266 280.643 493.526 281.033 492.69 281.248C491.719 281.462 490.756 281.717 489.801 282.003C487.947 282.576 486.1 283.284 484.541 284.43C483.999 284.82 483.49 285.25 482.853 285.441C482.249 285.632 481.58 285.624 480.943 285.616C477.028 285.52 473.113 285.329 469.237 284.9C465.258 284.47 462.544 284.534 457.339 283.746C457.339 283.778 457.339 284.08 457.228 284.645L457.204 284.677Z" fill="#F7E9D7"/>
<path d="M500.33 253.2C501.269 257.242 501.946 261.332 502.399 265.501" stroke="white" stroke-width="1.38" stroke-miterlimit="10" stroke-linecap="round"/>
<path d="M579.276 246.532L567.785 297.774L480.53 296.445C480.578 293.429 483.053 290.995 486.101 291.042L506.951 291.361L517.345 244.224C517.679 242.697 519.032 241.615 520.6 241.631L576.093 242.474C578.202 242.538 579.746 244.471 579.276 246.54V246.532Z" fill="#D9E2E2"/>
<path d="M465.29 371.724C465.695 369.385 466.833 366.998 467.9 364.905C472.317 356.336 480.211 350.297 488.711 346.143C489.586 345.722 490.462 345.3 491.369 344.982C491.289 345.085 491.226 345.196 491.162 345.316V345.348H491.13C491.234 345.284 491.297 345.212 491.401 345.149C494.839 348.244 498.5 351.649 501.627 355.079C499.558 356.758 496.558 358.118 495.069 359.232C491.552 361.826 488.162 364.587 484.509 367.006C479.607 370.308 474.378 372.711 468.537 373.761C466.284 374.159 465.106 374.581 465.138 372.838C465.178 372.568 465.218 372.202 465.29 371.732V371.724Z" fill="#16282B"/>
<path d="M470.988 364.985C473.264 360.704 476.797 357.442 480.657 354.554C483.363 352.517 486.236 350.687 488.981 348.825C489.761 348.3 491.289 346.883 492.602 346.199C495.34 348.681 498.149 351.307 500.688 354.02C492.308 359.113 484.843 365.765 475.643 369.369C474.8 369.687 473.924 370.014 473.025 370.03C472.126 370.045 471.155 369.664 470.63 368.924C469.81 367.77 470.335 366.21 470.988 364.977V364.985Z" fill="#F7E9D7"/>
<path d="M398.201 268.214C393.681 271.325 386.765 269.145 386.765 269.145C386.765 269.145 387.195 261.92 391.723 258.809C396.243 255.698 403.151 257.87 403.151 257.87C403.151 257.87 402.721 265.095 398.201 268.214Z" fill="url(#paint5_linear_0_1)"/>
<path d="M586.319 393.781C591.452 390.272 591.954 382.084 591.954 382.084C591.954 382.084 584.147 379.602 579.014 383.118C573.881 386.627 573.379 394.807 573.379 394.807C573.379 394.807 581.186 397.29 586.319 393.781Z" fill="url(#paint6_linear_0_1)"/>
<path d="M255.222 312.955C255.222 312.955 254.713 304.776 249.588 301.267C244.462 297.75 236.647 300.232 236.647 300.232C236.647 300.232 237.157 308.42 242.282 311.929C247.407 315.438 255.222 312.955 255.222 312.955Z" fill="url(#paint7_linear_0_1)"/>
<path d="M12.4063 291.719C20.6193 300.081 35.9868 298.315 35.9868 298.315C35.9868 298.315 38.0161 282.998 29.7952 274.643C21.5822 266.281 6.22272 268.039 6.22272 268.039C6.22272 268.039 4.19335 283.356 12.4063 291.719Z" fill="url(#paint8_linear_0_1)"/>
<path d="M47.3195 418.741C51.1742 418.741 54.2989 415.617 54.2989 411.763C54.2989 407.909 51.1742 404.785 47.3195 404.785C43.4649 404.785 40.3401 407.909 40.3401 411.763C40.3401 415.617 43.4649 418.741 47.3195 418.741Z" fill="white"/>
<path d="M196.951 253.629C200.041 253.629 202.546 251.125 202.546 248.036C202.546 244.946 200.041 242.442 196.951 242.442C193.862 242.442 191.357 244.946 191.357 248.036C191.357 251.125 193.862 253.629 196.951 253.629Z" fill="#E1E4E5"/>
<path d="M489.801 101.161C491.779 101.161 493.382 99.5581 493.382 97.5806C493.382 95.6031 491.779 94 489.801 94C487.823 94 486.22 95.6031 486.22 97.5806C486.22 99.5581 487.823 101.161 489.801 101.161Z" fill="#E1E4E5"/>
<path d="M33.2254 391.895C36.3109 391.895 38.8121 389.394 38.8121 386.309C38.8121 383.224 36.3109 380.724 33.2254 380.724C30.1399 380.724 27.6387 383.224 27.6387 386.309C27.6387 389.394 30.1399 391.895 33.2254 391.895Z" fill="white"/>
<path d="M290.446 156.938C294.551 156.938 297.879 153.611 297.879 149.507C297.879 145.402 294.551 142.075 290.446 142.075C286.34 142.075 283.013 145.402 283.013 149.507C283.013 153.611 286.34 156.938 290.446 156.938Z" fill="#E1E4E5"/>
<path d="M211.921 420.905C215.077 420.905 217.635 418.857 217.635 416.33C217.635 413.803 215.077 411.755 211.921 411.755C208.765 411.755 206.207 413.803 206.207 416.33C206.207 418.857 208.765 420.905 211.921 420.905Z" fill="white"/>
<path d="M594.601 444.693C599.218 442.44 601.52 437.659 599.741 434.014C597.962 430.368 592.776 429.24 588.158 431.492C583.541 433.745 581.24 438.526 583.019 442.172C584.798 445.817 589.983 446.946 594.601 444.693Z" fill="white"/>
<path d="M434.093 166.407C437.389 166.407 440.062 163.735 440.062 160.439C440.062 157.144 437.389 154.472 434.093 154.472C430.797 154.472 428.124 157.144 428.124 160.439C428.124 163.735 430.797 166.407 434.093 166.407Z" fill="#E1E4E5"/>
<path d="M592.638 217.132H592.789C593.673 229.671 603.008 229.87 603.008 229.87C603.008 229.87 592.718 230.069 592.718 244.567C592.718 230.069 582.428 229.87 582.428 229.87C582.428 229.87 591.755 229.679 592.638 217.132ZM383.136 132.479H383.287C384.171 145.019 393.506 145.218 393.506 145.218C393.506 145.218 383.216 145.417 383.216 159.914C383.216 145.417 372.925 145.218 372.925 145.218C372.925 145.218 382.253 145.027 383.136 132.479ZM224.034 111.537H224.145C224.782 120.719 231.514 120.854 231.514 120.854C231.514 120.854 224.097 120.997 224.097 131.604C224.097 120.997 216.68 120.854 216.68 120.854C216.68 120.854 223.405 120.711 224.042 111.537H224.034ZM32.9467 183.912H33.0581C33.6948 193.094 40.4275 193.229 40.4275 193.229C40.4275 193.229 33.0104 193.373 33.0104 203.979C33.0104 193.373 25.5933 193.229 25.5933 193.229C25.5933 193.229 32.318 193.086 32.9547 183.912H32.9467Z" fill="#E1E4E5"/>
</g>
<defs>
<linearGradient id="paint0_linear_0_1" x1="1219.71" y1="676.429" x2="987.796" y2="-369.532" gradientUnits="userSpaceOnUse">
<stop stop-color="white"/>
<stop offset="1" stop-color="#EEEEEE"/>
</linearGradient>
<linearGradient id="paint1_linear_0_1" x1="1242.53" y1="273.038" x2="1139.69" y2="-188.992" gradientUnits="userSpaceOnUse">
<stop stop-color="white"/>
<stop offset="1" stop-color="#EEEEEE"/>
</linearGradient>
<linearGradient id="paint2_linear_0_1" x1="1306.12" y1="204.224" x2="1517.86" y2="104.221" gradientUnits="userSpaceOnUse">
<stop stop-color="white"/>
<stop offset="1" stop-color="#EEEEEE"/>
</linearGradient>
<linearGradient id="paint3_linear_0_1" x1="1472.96" y1="349.478" x2="1400.22" y2="379.521" gradientUnits="userSpaceOnUse">
<stop stop-color="white"/>
<stop offset="1" stop-color="#EEEEEE"/>
</linearGradient>
<linearGradient id="paint4_linear_0_1" x1="869.822" y1="299.906" x2="789.98" y2="174.799" gradientUnits="userSpaceOnUse">
<stop stop-color="white"/>
<stop offset="1" stop-color="#EEEEEE"/>
</linearGradient>
<linearGradient id="paint5_linear_0_1" x1="380.701" y1="278.542" x2="416.307" y2="241.011" gradientUnits="userSpaceOnUse">
<stop stop-color="white"/>
<stop offset="1" stop-color="#EEEEEE"/>
</linearGradient>
<linearGradient id="paint6_linear_0_1" x1="604.345" y1="379.498" x2="550.223" y2="401.856" gradientUnits="userSpaceOnUse">
<stop stop-color="white"/>
<stop offset="1" stop-color="#EEEEEE"/>
</linearGradient>
<linearGradient id="paint7_linear_0_1" x1="224.256" y1="297.639" x2="278.386" y2="320.004" gradientUnits="userSpaceOnUse">
<stop stop-color="white"/>
<stop offset="1" stop-color="#EEEEEE"/>
</linearGradient>
<linearGradient id="paint8_linear_0_1" x1="44.8842" y1="320.459" x2="-14.4848" y2="227.37" gradientUnits="userSpaceOnUse">
<stop stop-color="white"/>
<stop offset="1" stop-color="#EEEEEE"/>
</linearGradient>
<clipPath id="clip0_0_1">
<rect width="597" height="364" fill="white" transform="translate(6 94)"/>
</clipPath>
</defs>
</svg>
