<svg width="102" height="24" viewBox="0 0 102 24" fill="none" xmlns="http://www.w3.org/2000/svg">
<g clip-path="url(#clip0_42_2574)">
<path d="M29.061 9.07462C31.1158 9.91044 33.7632 10.3256 37.0031 10.3256C40.2431 10.3256 42.8877 9.90773 44.9453 9.07462C47.0001 8.24151 48.0289 6.98778 48.0289 5.31885C48.0289 3.64992 46.9974 2.42604 44.9316 1.59294C42.8658 0.759829 40.2239 0.341919 37.0059 0.341919C33.7879 0.341919 31.1432 0.759829 29.0802 1.59294C27.0144 2.42876 25.9828 3.66892 25.9828 5.31885C25.9828 6.96878 27.0116 8.2388 29.0664 9.07462H29.061ZM31.2859 3.30528C32.7893 2.84395 34.6932 2.616 37.0004 2.616C39.3076 2.616 41.2143 2.84667 42.7149 3.30528C44.2183 3.76661 44.97 4.4369 44.97 5.31885C44.97 6.20081 44.2183 6.87652 42.7149 7.3487C41.2115 7.81817 39.3076 8.05427 37.0004 8.05427C34.6932 8.05427 32.7865 7.81817 31.2859 7.3487C29.7825 6.87923 29.0308 6.20352 29.0308 5.31885C29.0308 4.43418 29.7825 3.7639 31.2859 3.30528Z" fill="#EC8034"/>
<path d="M92.2225 2.27952C91.0977 1.44641 89.7891 1.0285 88.2966 1.0285C86.8042 1.0285 85.4654 1.44641 84.3406 2.27952C83.2158 3.11534 82.338 4.38536 81.707 6.09228C81.076 7.7992 80.7605 9.9186 80.7605 12.4505C80.7605 14.9824 81.076 17.1018 81.707 18.8087C82.338 20.5156 83.2158 21.7856 84.3406 22.6214C85.4654 23.4546 86.785 23.8725 88.2966 23.8725C89.8083 23.8725 91.0977 23.4546 92.2225 22.6214C93.3473 21.7856 94.2252 20.5156 94.8561 18.8087C95.4871 17.1018 95.8026 14.9824 95.8026 12.4505C95.8026 9.9186 95.4871 7.7992 94.8561 6.09228C94.2252 4.38536 93.3473 3.11534 92.2225 2.27952ZM91.6409 19.0828C90.7877 20.5319 89.6738 21.2537 88.2966 21.2537C86.9195 21.2537 85.7508 20.5292 84.9085 19.0828C84.0663 17.6337 83.6438 15.4247 83.6438 12.4505C83.6438 9.47626 84.069 7.26731 84.925 5.81819C85.7782 4.36907 86.903 3.64723 88.2994 3.64723C89.6958 3.64723 90.7904 4.37721 91.6436 5.83447C92.4968 7.29173 92.9248 9.49797 92.9248 12.4532C92.9248 15.4084 92.4968 17.6364 91.6436 19.0855L91.6409 19.0828Z" fill="#EC8034"/>
<path d="M74.308 0H71.5646V24H74.308V12.0678H77.5397V9.35414H74.308V0Z" fill="#EC8034"/>
<path d="M102 0H99.2566V24H102V0Z" fill="#EC8034"/>
<path d="M11.462 2.27952C10.3372 1.44641 9.02856 1.0285 7.53615 1.0285C6.04373 1.0285 4.70495 1.44641 3.58015 2.27952C2.45535 3.11534 1.57746 4.38536 0.946477 6.09228C0.315492 7.7992 0 9.9186 0 12.4505C0 14.9824 0.315492 17.1018 0.946477 18.8087C1.57746 20.5156 2.45535 21.7856 3.58015 22.6214C4.70495 23.4546 6.02453 23.8725 7.53615 23.8725C9.04777 23.8725 10.3372 23.4546 11.462 22.6214C12.5868 21.7856 13.4647 20.5156 14.0956 18.8087C14.7266 17.1018 15.0421 14.9824 15.0421 12.4505C15.0421 9.9186 14.7266 7.7992 14.0956 6.09228C13.4647 4.38536 12.5868 3.11534 11.462 2.27952ZM10.8804 19.0828C10.0272 20.5319 8.91334 21.2537 7.53615 21.2537C6.15896 21.2537 4.99026 20.5292 4.14804 19.0828C3.30581 17.6337 2.88332 15.4247 2.88332 12.4505C2.88332 9.47626 3.30855 7.26731 4.1645 5.81819C5.0177 4.36907 6.1425 3.64723 7.53889 3.64723C8.93529 3.64723 10.0299 4.37721 10.8831 5.83447C11.7363 7.29173 12.1643 9.49797 12.1643 12.4532C12.1643 15.4084 11.7363 17.6364 10.8831 19.0855L10.8804 19.0828Z" fill="#EC8034"/>
<path d="M21.2395 0H18.4961V24H21.2395V0Z" fill="#EC8034"/>
<path d="M60.4126 16.0081C59.8091 13.962 59.8201 12.7788 59.8338 11.1424C59.8393 10.5807 59.8447 9.94299 59.8255 9.22386C59.8201 9.05289 59.8173 8.87379 59.8118 8.69197C59.8475 7.06375 59.8009 5.46266 59.757 3.97827C59.7323 3.10988 59.7076 2.28763 59.6993 1.51965V1.02576L56.9532 1.03933V1.54136C56.9642 2.33105 56.9861 3.15601 57.0135 4.02983C57.0135 4.24964 57.0218 6.67569 57.0684 8.69197C56.9477 13.7883 55.9464 18.7978 51.107 20.4939C48.0481 21.5658 44.21 21.2646 41.0908 19.7042C39.8371 19.0773 38.4846 17.8317 38.4846 16.578V14.6974H49.1592V11.9837H25.0665V14.6974H35.7411V16.578C35.7411 17.3053 35.294 20.9389 26.4382 20.9389H24.5947V23.6526H26.4382C32.7344 23.6526 35.7494 21.8751 37.1869 20.076C37.9633 20.9688 38.9427 21.6716 39.8535 22.1248C42.1113 23.2537 44.6929 23.8317 47.2059 23.8317C48.8821 23.8317 50.5281 23.5739 52.026 23.0475C55.0685 21.981 56.945 20.0217 58.0944 17.6336C58.8873 19.5169 60.3523 21.0149 62.3742 21.9945C64.5031 23.0285 66.7554 23.2808 68.4508 23.2808C68.684 23.2808 68.9062 23.2754 69.1175 23.2673L69.0105 20.5563C65.5483 20.692 61.4688 19.5658 60.4181 16L60.4126 16.0081Z" fill="#EC8034"/>
</g>
<defs>
<clipPath id="clip0_42_2574">
<rect width="102" height="24" fill="white"/>
</clipPath>
</defs>
</svg>
