<svg width="94" height="80" viewBox="0 0 94 80" fill="none" xmlns="http://www.w3.org/2000/svg">
<g clip-path="url(#clip0_42_3504)">
<path fill-rule="evenodd" clip-rule="evenodd" d="M81.0863 21.0816L69.8543 9.83472C68.3627 8.34248 66.3406 7.50122 64.2383 7.50122H35.748C31.3533 7.50122 27.7996 11.0566 27.7996 15.4531V71.1467C27.7996 75.5433 31.3533 79.0986 35.748 79.0986H75.4803C79.875 79.0986 83.4287 75.5433 83.4287 71.1467V26.71C83.4287 24.5969 82.5879 22.5738 81.0963 21.0816H81.0863Z" stroke="#E1E4E5" stroke-width="1.79"/>
<path fill-rule="evenodd" clip-rule="evenodd" d="M66.5809 13.5804L55.3489 2.3335C53.8573 0.841262 51.8352 0 49.733 0H21.2426C16.848 0 13.2942 3.55533 13.2942 7.95193V63.6455C13.2942 68.0421 16.848 71.5974 21.2426 71.5974H60.9649C65.3596 71.5974 68.9134 68.0421 68.9134 63.6455V19.2088C68.9134 17.0956 68.0725 15.0726 66.5809 13.5804Z" fill="#EC8034"/>
<path fill-rule="evenodd" clip-rule="evenodd" d="M55.6292 27.2709C55.6292 35.9539 49.0922 44.0761 40.3129 46.0491C31.5335 44.0761 24.9966 35.9539 24.9966 27.2709V20.4507C24.9966 18.8983 25.9376 17.4962 27.3791 16.9154L36.9493 12.9995C39.1016 12.1182 41.5242 12.1182 43.6765 12.9995L53.2466 16.9154C54.6882 17.5063 55.6292 18.8983 55.6292 20.4507V27.2709Z" fill="white"/>
<path d="M53.7072 52.0281H27.1189C26.288 52.0281 25.6073 52.7091 25.6073 53.5403C25.6073 54.3716 26.288 55.0526 27.1189 55.0526H53.7072C54.5381 55.0526 55.2188 54.3716 55.2188 53.5403C55.2188 52.7091 54.5381 52.0281 53.7072 52.0281ZM47.6307 58.5278H33.1153C32.1042 58.5278 31.2833 59.1988 31.2833 60.0301C31.2833 60.8613 32.1042 61.5323 33.1153 61.5323H47.6307C48.6418 61.5323 49.4627 60.8613 49.4627 60.0301C49.4627 59.1988 48.6418 58.5278 47.6307 58.5278Z" fill="white"/>
<path d="M1.09112 20.8713C2.68282 22.7141 5.89623 22.5539 5.89623 22.5539C5.89623 22.5539 6.5269 19.3991 4.9252 17.5564C3.33351 15.7036 0.120089 15.8638 0.120089 15.8638C0.120089 15.8638 -0.510582 19.0186 1.09112 20.8613V20.8713Z" fill="url(#paint0_linear_42_3504)"/>
<path d="M85.8113 14.2213C87.3814 14.2213 88.6543 13.0152 88.6543 11.5273C88.6543 10.0394 87.3814 8.83325 85.8113 8.83325C84.2411 8.83325 82.9683 10.0394 82.9683 11.5273C82.9683 13.0152 84.2411 14.2213 85.8113 14.2213Z" fill="#EC8034"/>
<path d="M19.8711 77.7066C20.7447 77.7066 21.4528 76.9982 21.4528 76.1242C21.4528 75.2503 20.7447 74.5419 19.8711 74.5419C18.9976 74.5419 18.2894 75.2503 18.2894 76.1242C18.2894 76.9982 18.9976 77.7066 19.8711 77.7066Z" fill="#E1E4E5"/>
<path d="M74.9098 73.4202C75.4295 73.4202 75.8507 72.9987 75.8507 72.4788C75.8507 71.9588 75.4295 71.5374 74.9098 71.5374C74.3901 71.5374 73.9688 71.9588 73.9688 72.4788C73.9688 72.9987 74.3901 73.4202 74.9098 73.4202Z" fill="#E1E4E5"/>
<path d="M77.983 31.0466C78.7294 31.0466 79.3345 30.4413 79.3345 29.6946C79.3345 28.9479 78.7294 28.3425 77.983 28.3425C77.2366 28.3425 76.6316 28.9479 76.6316 29.6946C76.6316 30.4413 77.2366 31.0466 77.983 31.0466Z" fill="#E1E4E5"/>
<path d="M87.0826 65.6285C87.8069 65.6285 88.394 65.0411 88.394 64.3165C88.394 63.5919 87.8069 63.0045 87.0826 63.0045C86.3584 63.0045 85.7712 63.5919 85.7712 64.3165C85.7712 65.0411 86.3584 65.6285 87.0826 65.6285Z" fill="#EC8034"/>
<path d="M7.45792 46.7702C8.42545 46.7702 9.20978 45.9855 9.20978 45.0175C9.20978 44.0496 8.42545 43.2649 7.45792 43.2649C6.49039 43.2649 5.70605 44.0496 5.70605 45.0175C5.70605 45.9855 6.49039 46.7702 7.45792 46.7702Z" fill="#EC8034"/>
<path d="M92.6486 35.8438C93.3949 35.8438 94 35.3595 94 34.7622C94 34.1648 93.3949 33.6805 92.6486 33.6805C91.9022 33.6805 91.2971 34.1648 91.2971 34.7622C91.2971 35.3595 91.9022 35.8438 92.6486 35.8438Z" fill="#E1E4E5"/>
<path d="M75.8107 45.4282C76.4907 45.4282 77.042 44.8767 77.042 44.1963C77.042 43.516 76.4907 42.9645 75.8107 42.9645C75.1306 42.9645 74.5793 43.516 74.5793 44.1963C74.5793 44.8767 75.1306 45.4282 75.8107 45.4282Z" fill="#E1E4E5"/>
<path d="M86.8824 17.6765H86.9024C86.9925 18.9985 87.9736 19.0186 87.9736 19.0186C87.9736 19.0186 86.8924 19.0386 86.8924 20.5709C86.8924 19.0486 85.8113 19.0186 85.8113 19.0186C85.8113 19.0186 86.7923 18.9985 86.8824 17.6765ZM78.2132 5.99902H78.2332C78.3233 7.37108 79.3043 7.40113 79.3043 7.40113C79.3043 7.40113 78.2232 7.42116 78.2232 9.01355C78.2232 7.42116 77.142 7.40113 77.142 7.40113C77.142 7.40113 78.1231 7.3811 78.2132 5.99902ZM6.80721 65.1978H6.83725C7.03746 68.2023 9.18975 68.2524 9.18975 68.2524C9.18975 68.2524 6.82724 68.3025 6.82724 71.7777C6.82724 68.3025 4.45471 68.2524 4.45471 68.2524C4.45471 68.2524 6.59699 68.2023 6.80721 65.1978Z" fill="#E1E4E5"/>
</g>
<defs>
<linearGradient id="paint0_linear_42_3504" x1="7.44789" y1="27.2709" x2="-3.65135" y2="7.14485" gradientUnits="userSpaceOnUse">
<stop stop-color="white"/>
<stop offset="1" stop-color="#EEEEEE"/>
</linearGradient>
<clipPath id="clip0_42_3504">
<rect width="94" height="80" fill="white"/>
</clipPath>
</defs>
</svg>
