<svg width="46" height="30" viewBox="0 0 46 30" fill="none" xmlns="http://www.w3.org/2000/svg">
<g style="mix-blend-mode:multiply">
<path d="M10.882 21.4099L26.8383 0H19.258L4.10303 19.6199V30H10.9075L10.882 21.4099Z" fill="black" fill-opacity="0.6"/>
</g>
<g style="mix-blend-mode:multiply">
<path d="M35.1577 21.4099L19.2014 0H26.7817L41.9367 19.6199V30H35.1322L35.1577 21.4099Z" fill="black" fill-opacity="0.5"/>
</g>
<g style="mix-blend-mode:multiply">
<path d="M4.94688 9.91206C7.67896 9.91206 9.89375 7.69317 9.89375 4.95603C9.89375 2.21889 7.67896 0 4.94688 0C2.21479 0 0 2.21889 0 4.95603C0 7.69317 2.21479 9.91206 4.94688 9.91206Z" fill="black" fill-opacity="0.6"/>
</g>
<path d="M42.4491 14.678C44.4102 14.678 45.9999 13.0853 45.9999 11.1206C45.9999 9.15583 44.4102 7.56311 42.4491 7.56311C40.488 7.56311 38.8982 9.15583 38.8982 11.1206C38.8982 13.0853 40.488 14.678 42.4491 14.678Z" fill="black" fill-opacity="0.5"/>
<g style="mix-blend-mode:multiply">
<path d="M26.0738 24.0568H20.1387V30.0029H26.0738V24.0568Z" fill="black" fill-opacity="0.6"/>
</g>
</svg>
