<svg width="14" height="14" viewBox="0 0 14 14" fill="none" xmlns="http://www.w3.org/2000/svg">
<path d="M12.776 6.46668H7.53334V1.22401C7.53334 0.930674 7.29334 0.690674 7.00001 0.690674C6.70668 0.690674 6.46668 0.930674 6.46668 1.22401V6.46668H1.22401C0.930674 6.46668 0.690674 6.70668 0.690674 7.00001C0.690674 7.29334 0.930674 7.53334 1.22401 7.53334H6.46668V12.776C6.46668 13.0693 6.70668 13.3093 7.00001 13.3093C7.29334 13.3093 7.53334 13.0693 7.53334 12.776V7.53334H12.776C13.0693 7.53334 13.3093 7.29334 13.3093 7.00001C13.3093 6.70668 13.0693 6.46668 12.776 6.46668Z" fill="black"/>
</svg>
