<svg width="42" height="37" viewBox="0 0 42 37" fill="none" xmlns="http://www.w3.org/2000/svg">
<path d="M24.521 13.475C27.412 14.539 29.414 16.52 30.59 19.348C31.129 20.65 31.332 22.022 31.332 23.422C31.332 26.929 31.332 30.436 31.332 33.95C28.819 33.95 26.306 33.964 23.793 33.964C21.798 33.964 19.803 33.957 17.808 33.95C17.808 30.646 17.808 27.342 17.808 24.031C17.808 23.226 17.857 22.428 17.969 21.63C18.263 19.453 19.236 17.598 20.72 16.002C21.784 14.861 23.093 14.056 24.528 13.461L24.521 13.475Z" fill="#EC8034"/>
<path d="M24.521 13.475C23.086 14.07 21.777 14.868 20.713 16.016C19.229 17.612 18.256 19.46 17.962 21.644C17.857 22.442 17.801 23.24 17.801 24.045C17.801 27.349 17.801 30.653 17.801 33.964C15.421 33.964 13.041 33.964 10.661 33.964C10.661 30.331 10.647 26.698 10.661 23.065C10.689 18.137 14.245 13.902 19.082 13.013C20.86 12.684 22.61 12.81 24.325 13.398C24.388 13.419 24.444 13.461 24.507 13.489L24.521 13.475Z" fill="#D86819"/>
<path d="M34.139 34.552C33.894 34.097 33.474 33.985 33.005 33.978C32.445 33.964 31.892 33.964 31.332 33.957C28.819 33.957 26.306 33.971 23.793 33.971C21.798 33.971 19.803 33.964 17.808 33.957C15.428 33.957 13.048 33.957 10.668 33.957C10.108 33.957 9.555 33.964 8.995 33.978C8.526 33.985 8.106 34.097 7.861 34.552C7.693 34.713 7.644 34.923 7.637 35.147C7.616 35.903 8.162 36.414 9.016 36.414C17.003 36.414 24.99 36.414 32.97 36.414C33.068 36.414 33.159 36.414 33.257 36.414C34.174 36.309 34.643 35.315 34.132 34.559L34.139 34.552Z" fill="#0093BA"/>
<path d="M0.0139771 21.336C0.349977 20.65 0.909977 20.44 1.65198 20.454C3.33198 20.489 5.01198 20.461 6.69198 20.468C7.41298 20.468 7.87498 20.762 8.04298 21.308C8.28098 22.071 7.75598 22.862 6.95098 22.876C5.02598 22.904 3.10098 22.897 1.17598 22.876C0.587977 22.876 0.258977 22.477 0.0209765 21.987V21.329L0.0139771 21.336Z" fill="#EC8034"/>
<path d="M37.926 22.89C37.023 22.89 36.127 22.89 35.224 22.89C34.447 22.89 33.901 22.386 33.894 21.686C33.894 21.007 34.412 20.482 35.168 20.475C37.009 20.461 38.857 20.461 40.698 20.475C41.475 20.475 42 21.021 41.979 21.721C41.958 22.407 41.426 22.89 40.663 22.89C39.746 22.89 38.836 22.89 37.919 22.89H37.926Z" fill="#EC8034"/>
<path d="M19.789 4.704C19.789 3.787 19.782 2.877 19.789 1.96C19.789 1.4 20.055 0.994003 20.58 0.777003C21.035 0.595003 21.553 0.728003 21.889 1.092C22.12 1.344 22.218 1.652 22.218 1.995C22.218 3.822 22.225 5.656 22.218 7.483C22.218 8.246 21.679 8.799 20.986 8.785C20.307 8.771 19.803 8.239 19.789 7.49C19.775 6.559 19.789 5.635 19.789 4.704Z" fill="#EC8034"/>
<path d="M11.025 12.901C10.654 12.915 10.367 12.747 10.115 12.502C8.81297 11.2 7.50397 9.90497 6.20897 8.58897C5.68397 8.05697 5.68397 7.31497 6.17397 6.83197C6.66397 6.34897 7.39197 6.36297 7.92397 6.89497C9.23297 8.18997 10.535 9.49897 11.83 10.801C12.222 11.193 12.348 11.662 12.117 12.187C11.914 12.656 11.529 12.887 11.018 12.901H11.025Z" fill="#EC8034"/>
<path d="M36.183 7.679C36.197 8.043 36.043 8.34401 35.791 8.59601C34.489 9.89801 33.194 11.207 31.878 12.502C31.346 13.027 30.611 13.041 30.121 12.558C29.631 12.075 29.638 11.34 30.163 10.808C31.472 9.49201 32.781 8.176 34.097 6.874C34.482 6.489 34.944 6.384 35.448 6.594C35.917 6.797 36.155 7.168 36.169 7.686L36.183 7.679Z" fill="#EC8034"/>
</svg>
